<svg xmlns="http://www.w3.org/2000/svg" version="1.1" xmlns:xlink="http://www.w3.org/1999/xlink" xmlns:svgjs="http://svgjs.dev/svgjs" width="266.42999" height="399.78714"><svg version="1.1" id="SvgjsSvg1110" width="266.42999" height="399.78714" viewBox="0 0 266.42999 399.78714" sodipodi:docname="LogoHero.png" xml:space="preserve" xmlns:inkscape="http://www.inkscape.org/namespaces/inkscape" xmlns:sodipodi="http://sodipodi.sourceforge.net/DTD/sodipodi-0.dtd" xmlns="http://www.w3.org/2000/svg" xmlns:svg="http://www.w3.org/2000/svg"><defs id="SvgjsDefs1109"></defs><sodipodi:namedview id="SvgjsSodipodi:namedview1108" pagecolor="#ffffff" bordercolor="#000000" borderopacity="0.25" inkscape:showpageshadow="2" inkscape:pageopacity="0.0" inkscape:pagecheckerboard="0" inkscape:deskcolor="#d1d1d1"><inkscape:page x="0" y="0" width="266.42999" height="399.78714" id="SvgjsInkscape:page1107" margin="0" bleed="0"></inkscape:page></sodipodi:namedview><g inkscape:groupmode="layer" inkscape:label="Image" id="SvgjsG1106" transform="translate(-440.5849,-117.11152)"><path style="fill:#36bf3c;stroke:none" d="m 444.03457,118.5143 c -4.82444,3.98022 -3.17892,15.93835 -3.17963,21.45373 l -3e-5,59 c 0,52.33704 1,104.71634 1,157 0,33.21518 -1.65191,71.08066 17.43775,100 17.64945,26.73755 51.26167,46.27655 81.56225,55.13245 7.19284,2.10223 14.57994,3.96835 21.99878,5.07687 2.89453,0.4325 6.60684,1.08484 9.16801,-0.76611 4.93618,-3.56736 2.83321,-15.17649 2.83321,-20.44321 v -61 -141 c 0,-25.51105 1.94269,-53.10251 -4.40727,-78 -3.33882,-13.09113 -9.67451,-25.61655 -16.84033,-37 -17.89824,-28.43277 -45.98316,-46.59365 -77.7524,-55.83908 -7.19712,-2.09448 -14.5708,-3.5299 -21.99878,-4.52926 -2.99797,-0.40335 -7.25607,-1.20197 -9.82156,0.91461 m 142.82034,135.45373 c -3.73546,10.82974 -2,10.23923 -2,35 v 67 117 c 0,10.28192 -0.57393,20.7594 0.45242,30.99985 0.34064,3.3988 0.14865,8.30026 2.73935,10.90576 1.99309,2.00449 5.18247,2.03482 7.81607,2.02392 7.13065,-0.0295 14.26813,-1.70477 20.99216,-3.97009 27.55435,-9.28302 51.84396,-27.87414 68.04897,-51.95944 36.64021,-54.45792 26.91938,-132.78015 -23.04897,-175.55682 -21.27606,-18.21392 -47.95622,-26.71195 -75,-31.44318 z" id="SvgjsPath1105" sodipodi:nodetypes="ccssssssscsssssccscsssssssc"></path></g></svg><style>@media (prefers-color-scheme: light) { :root { filter: none; } }
@media (prefers-color-scheme: dark) { :root { filter: none; } }
</style></svg>