<svg width="1019" height="633" viewBox="0 0 1019 633" fill="none" xmlns="http://www.w3.org/2000/svg">
<g id="linhaGraph">
<path id="linha-tendencia" d="M2 628.5C447.933 484.174 667.625 350.304 1001 17.5" stroke="#36C03B" stroke-width="9"/>
<path id="seta-fimlinha" d="M995.863 15.755C996.15 15.9517 996.162 16.0819 995.963 16.3447L995.901 16.406L1002.01 22.639C1002.31 22.3432 1002.47 22.3132 1002.72 22.6159L1006 27.0358C1006.49 27.7063 1007.49 28.6084 1007.83 27.8464C1007.97 27.5386 1009.73 12.2928 1010.05 9.47848C1010.09 9.18283 1010.13 8.83953 1009.93 8.6194C1009.7 8.36675 1009.3 8.42717 1008.96 8.46518L991.343 10.438C990.159 10.6557 990.022 11.4458 990.647 11.9484C991.272 12.4511 995.863 15.755 995.863 15.755Z" fill="#36C03B"/>
</g>
</svg>
