<svg width="275" height="484" viewBox="0 0 275 484" fill="none" xmlns="http://www.w3.org/2000/svg">
<path id="seta-inicial" d="M41.2421 482.489C46.7421 482.489 88.7422 483.489 88.7422 483.489H128.242C132.451 483.489 135.414 482.105 137.277 480.793C139.122 479.495 140.254 477.48 141.218 475.44C142.466 472.8 144.143 469.086 144.742 466.989C145.742 463.489 167.404 412.674 176.242 352.489C188.052 272.063 186.242 178.989 186.242 178.989C186.299 174.104 187.323 172.568 191.742 172.989L263.019 183.845C265.806 184.27 268.802 184.374 271.16 182.83C274.599 180.579 275.391 177.052 274.242 173.989C272.833 170.231 157.561 21.7166 143.618 3.76001C142.692 2.56827 141.647 1.48291 140.299 0.80366C138.218 -0.245408 136.55 -0.250185 134.511 0.688546C132.937 1.41313 131.698 2.68512 130.631 4.0507L3.74217 166.489C-3.96734 177.923 1.24231 185.489 10.2421 184.489C19.242 183.489 82.2422 172.989 82.2422 172.989C85.2284 172.42 86.5829 172.87 87.2778 174.85C87.7594 176.222 87.7374 177.694 87.7156 179.148L87.7154 179.163C87.5034 193.328 85.7276 274.181 72.2422 346.989C60.5851 409.925 34.122 466.849 33.2421 469.489C31.2421 475.489 33.7421 478.989 33.7421 478.989C33.7421 478.989 35.7421 482.489 41.2421 482.489Z" fill="url(#paint0_linear_7_90)"/>
<defs>
<linearGradient id="paint0_linear_7_90" x1="175.5" y1="48" x2="43" y2="483" gradientUnits="userSpaceOnUse">
<stop stop-color="#36C03B"/>
<stop offset="1" stop-color="#16AB1B"/>
</linearGradient>
</defs>
</svg>
